<?xml version="1.0" encoding="utf-8" standalone="no"?>
<!DOCTYPE svg PUBLIC "-//W3C//DTD SVG 1.1//EN"
  "http://www.w3.org/Graphics/SVG/1.1/DTD/svg11.dtd">
<svg xmlns:xlink="http://www.w3.org/1999/xlink" width="460.8pt" height="345.6pt" viewBox="0 0 460.8 345.6" xmlns="http://www.w3.org/2000/svg" version="1.1">
 <metadata>
  <rdf:RDF xmlns:dc="http://purl.org/dc/elements/1.1/" xmlns:cc="http://creativecommons.org/ns#" xmlns:rdf="http://www.w3.org/1999/02/22-rdf-syntax-ns#">
   <cc:Work>
    <dc:type rdf:resource="http://purl.org/dc/dcmitype/StillImage"/>
    <dc:date>2025-11-16T14:53:14.387031</dc:date>
    <dc:format>image/svg+xml</dc:format>
    <dc:creator>
     <cc:Agent>
      <dc:title>Matplotlib v3.10.7, https://matplotlib.org/</dc:title>
     </cc:Agent>
    </dc:creator>
   </cc:Work>
  </rdf:RDF>
 </metadata>
 <defs>
  <style type="text/css">*{stroke-linejoin: round; stroke-linecap: butt}</style>
 </defs>
 <g id="figure_1">
  <g id="patch_1">
   <path d="M 0 345.6 
L 460.8 345.6 
L 460.8 0 
L 0 0 
z
" style="fill: #ffffff"/>
  </g>
  <g id="axes_1">
   <g id="patch_2">
    <path d="M 60.02524 300.62976 
L 457.79976 300.62976 
L 457.79976 23.58924 
L 60.02524 23.58924 
z
" style="fill: #ffffff"/>
   </g>
   <g id="matplotlib.axis_1">
    <g id="xtick_1">
     <g id="line2d_1">
      <path d="M 78.1059 300.62976 
L 78.1059 23.58924 
" clip-path="url(#p5cbe4f1453)" style="fill: none; stroke-dasharray: 3.7,1.6; stroke-dashoffset: 0; stroke: #b0b0b0"/>
     </g>
     <g id="line2d_2">
      <defs>
       <path id="m724cbab3e9" d="M 0 0 
L 0 3.5 
" style="stroke: #000000; stroke-width: 0.8"/>
      </defs>
      <g>
       <use xlink:href="#m724cbab3e9" x="78.1059" y="300.62976" style="stroke: #000000; stroke-width: 0.8"/>
      </g>
     </g>
     <g id="text_1">
      <!-- 0 -->
      <g transform="translate(73.0159 319.78726) scale(0.16 -0.16)">
       <defs>
        <path id="DejaVuSans-30" d="M 2034 4250 
Q 1547 4250 1301 3770 
Q 1056 3291 1056 2328 
Q 1056 1369 1301 889 
Q 1547 409 2034 409 
Q 2525 409 2770 889 
Q 3016 1369 3016 2328 
Q 3016 3291 2770 3770 
Q 2525 4250 2034 4250 
z
M 2034 4750 
Q 2819 4750 3233 4129 
Q 3647 3509 3647 2328 
Q 3647 1150 3233 529 
Q 2819 -91 2034 -91 
Q 1250 -91 836 529 
Q 422 1150 422 2328 
Q 422 3509 836 4129 
Q 1250 4750 2034 4750 
z
" transform="scale(0.015625)"/>
       </defs>
       <use xlink:href="#DejaVuSans-30"/>
      </g>
     </g>
    </g>
    <g id="xtick_2">
     <g id="line2d_3">
      <path d="M 169.247578 300.62976 
L 169.247578 23.58924 
" clip-path="url(#p5cbe4f1453)" style="fill: none; stroke-dasharray: 3.7,1.6; stroke-dashoffset: 0; stroke: #b0b0b0"/>
     </g>
     <g id="line2d_4">
      <g>
       <use xlink:href="#m724cbab3e9" x="169.247578" y="300.62976" style="stroke: #000000; stroke-width: 0.8"/>
      </g>
     </g>
     <g id="text_2">
      <!-- 2 -->
      <g transform="translate(164.157578 319.78726) scale(0.16 -0.16)">
       <defs>
        <path id="DejaVuSans-32" d="M 1228 531 
L 3431 531 
L 3431 0 
L 469 0 
L 469 531 
Q 828 903 1448 1529 
Q 2069 2156 2228 2338 
Q 2531 2678 2651 2914 
Q 2772 3150 2772 3378 
Q 2772 3750 2511 3984 
Q 2250 4219 1831 4219 
Q 1534 4219 1204 4116 
Q 875 4013 500 3803 
L 500 4441 
Q 881 4594 1212 4672 
Q 1544 4750 1819 4750 
Q 2544 4750 2975 4387 
Q 3406 4025 3406 3419 
Q 3406 3131 3298 2873 
Q 3191 2616 2906 2266 
Q 2828 2175 2409 1742 
Q 1991 1309 1228 531 
z
" transform="scale(0.015625)"/>
       </defs>
       <use xlink:href="#DejaVuSans-32"/>
      </g>
     </g>
    </g>
    <g id="xtick_3">
     <g id="line2d_5">
      <path d="M 260.389256 300.62976 
L 260.389256 23.58924 
" clip-path="url(#p5cbe4f1453)" style="fill: none; stroke-dasharray: 3.7,1.6; stroke-dashoffset: 0; stroke: #b0b0b0"/>
     </g>
     <g id="line2d_6">
      <g>
       <use xlink:href="#m724cbab3e9" x="260.389256" y="300.62976" style="stroke: #000000; stroke-width: 0.8"/>
      </g>
     </g>
     <g id="text_3">
      <!-- 4 -->
      <g transform="translate(255.299256 319.78726) scale(0.16 -0.16)">
       <defs>
        <path id="DejaVuSans-34" d="M 2419 4116 
L 825 1625 
L 2419 1625 
L 2419 4116 
z
M 2253 4666 
L 3047 4666 
L 3047 1625 
L 3713 1625 
L 3713 1100 
L 3047 1100 
L 3047 0 
L 2419 0 
L 2419 1100 
L 313 1100 
L 313 1709 
L 2253 4666 
z
" transform="scale(0.015625)"/>
       </defs>
       <use xlink:href="#DejaVuSans-34"/>
      </g>
     </g>
    </g>
    <g id="xtick_4">
     <g id="line2d_7">
      <path d="M 351.530934 300.62976 
L 351.530934 23.58924 
" clip-path="url(#p5cbe4f1453)" style="fill: none; stroke-dasharray: 3.7,1.6; stroke-dashoffset: 0; stroke: #b0b0b0"/>
     </g>
     <g id="line2d_8">
      <g>
       <use xlink:href="#m724cbab3e9" x="351.530934" y="300.62976" style="stroke: #000000; stroke-width: 0.8"/>
      </g>
     </g>
     <g id="text_4">
      <!-- 6 -->
      <g transform="translate(346.440934 319.78726) scale(0.16 -0.16)">
       <defs>
        <path id="DejaVuSans-36" d="M 2113 2584 
Q 1688 2584 1439 2293 
Q 1191 2003 1191 1497 
Q 1191 994 1439 701 
Q 1688 409 2113 409 
Q 2538 409 2786 701 
Q 3034 994 3034 1497 
Q 3034 2003 2786 2293 
Q 2538 2584 2113 2584 
z
M 3366 4563 
L 3366 3988 
Q 3128 4100 2886 4159 
Q 2644 4219 2406 4219 
Q 1781 4219 1451 3797 
Q 1122 3375 1075 2522 
Q 1259 2794 1537 2939 
Q 1816 3084 2150 3084 
Q 2853 3084 3261 2657 
Q 3669 2231 3669 1497 
Q 3669 778 3244 343 
Q 2819 -91 2113 -91 
Q 1303 -91 875 529 
Q 447 1150 447 2328 
Q 447 3434 972 4092 
Q 1497 4750 2381 4750 
Q 2619 4750 2861 4703 
Q 3103 4656 3366 4563 
z
" transform="scale(0.015625)"/>
       </defs>
       <use xlink:href="#DejaVuSans-36"/>
      </g>
     </g>
    </g>
    <g id="xtick_5">
     <g id="line2d_9">
      <path d="M 442.672613 300.62976 
L 442.672613 23.58924 
" clip-path="url(#p5cbe4f1453)" style="fill: none; stroke-dasharray: 3.7,1.6; stroke-dashoffset: 0; stroke: #b0b0b0"/>
     </g>
     <g id="line2d_10">
      <g>
       <use xlink:href="#m724cbab3e9" x="442.672613" y="300.62976" style="stroke: #000000; stroke-width: 0.8"/>
      </g>
     </g>
     <g id="text_5">
      <!-- 8 -->
      <g transform="translate(437.582613 319.78726) scale(0.16 -0.16)">
       <defs>
        <path id="DejaVuSans-38" d="M 2034 2216 
Q 1584 2216 1326 1975 
Q 1069 1734 1069 1313 
Q 1069 891 1326 650 
Q 1584 409 2034 409 
Q 2484 409 2743 651 
Q 3003 894 3003 1313 
Q 3003 1734 2745 1975 
Q 2488 2216 2034 2216 
z
M 1403 2484 
Q 997 2584 770 2862 
Q 544 3141 544 3541 
Q 544 4100 942 4425 
Q 1341 4750 2034 4750 
Q 2731 4750 3128 4425 
Q 3525 4100 3525 3541 
Q 3525 3141 3298 2862 
Q 3072 2584 2669 2484 
Q 3125 2378 3379 2068 
Q 3634 1759 3634 1313 
Q 3634 634 3220 271 
Q 2806 -91 2034 -91 
Q 1263 -91 848 271 
Q 434 634 434 1313 
Q 434 1759 690 2068 
Q 947 2378 1403 2484 
z
M 1172 3481 
Q 1172 3119 1398 2916 
Q 1625 2713 2034 2713 
Q 2441 2713 2670 2916 
Q 2900 3119 2900 3481 
Q 2900 3844 2670 4047 
Q 2441 4250 2034 4250 
Q 1625 4250 1398 4047 
Q 1172 3844 1172 3481 
z
" transform="scale(0.015625)"/>
       </defs>
       <use xlink:href="#DejaVuSans-38"/>
      </g>
     </g>
    </g>
    <g id="text_6">
     <!-- Time (m) -->
     <g transform="translate(222.76125 339.27226) scale(0.16 -0.16)">
      <defs>
       <path id="DejaVuSans-54" d="M -19 4666 
L 3928 4666 
L 3928 4134 
L 2272 4134 
L 2272 0 
L 1638 0 
L 1638 4134 
L -19 4134 
L -19 4666 
z
" transform="scale(0.015625)"/>
       <path id="DejaVuSans-69" d="M 603 3500 
L 1178 3500 
L 1178 0 
L 603 0 
L 603 3500 
z
M 603 4863 
L 1178 4863 
L 1178 4134 
L 603 4134 
L 603 4863 
z
" transform="scale(0.015625)"/>
       <path id="DejaVuSans-6d" d="M 3328 2828 
Q 3544 3216 3844 3400 
Q 4144 3584 4550 3584 
Q 5097 3584 5394 3201 
Q 5691 2819 5691 2113 
L 5691 0 
L 5113 0 
L 5113 2094 
Q 5113 2597 4934 2840 
Q 4756 3084 4391 3084 
Q 3944 3084 3684 2787 
Q 3425 2491 3425 1978 
L 3425 0 
L 2847 0 
L 2847 2094 
Q 2847 2600 2669 2842 
Q 2491 3084 2119 3084 
Q 1678 3084 1418 2786 
Q 1159 2488 1159 1978 
L 1159 0 
L 581 0 
L 581 3500 
L 1159 3500 
L 1159 2956 
Q 1356 3278 1631 3431 
Q 1906 3584 2284 3584 
Q 2666 3584 2933 3390 
Q 3200 3197 3328 2828 
z
" transform="scale(0.015625)"/>
       <path id="DejaVuSans-65" d="M 3597 1894 
L 3597 1613 
L 953 1613 
Q 991 1019 1311 708 
Q 1631 397 2203 397 
Q 2534 397 2845 478 
Q 3156 559 3463 722 
L 3463 178 
Q 3153 47 2828 -22 
Q 2503 -91 2169 -91 
Q 1331 -91 842 396 
Q 353 884 353 1716 
Q 353 2575 817 3079 
Q 1281 3584 2069 3584 
Q 2775 3584 3186 3129 
Q 3597 2675 3597 1894 
z
M 3022 2063 
Q 3016 2534 2758 2815 
Q 2500 3097 2075 3097 
Q 1594 3097 1305 2825 
Q 1016 2553 972 2059 
L 3022 2063 
z
" transform="scale(0.015625)"/>
       <path id="DejaVuSans-20" transform="scale(0.015625)"/>
       <path id="DejaVuSans-28" d="M 1984 4856 
Q 1566 4138 1362 3434 
Q 1159 2731 1159 2009 
Q 1159 1288 1364 580 
Q 1569 -128 1984 -844 
L 1484 -844 
Q 1016 -109 783 600 
Q 550 1309 550 2009 
Q 550 2706 781 3412 
Q 1013 4119 1484 4856 
L 1984 4856 
z
" transform="scale(0.015625)"/>
       <path id="DejaVuSans-29" d="M 513 4856 
L 1013 4856 
Q 1481 4119 1714 3412 
Q 1947 2706 1947 2009 
Q 1947 1309 1714 600 
Q 1481 -109 1013 -844 
L 513 -844 
Q 928 -128 1133 580 
Q 1338 1288 1338 2009 
Q 1338 2731 1133 3434 
Q 928 4138 513 4856 
z
" transform="scale(0.015625)"/>
      </defs>
      <use xlink:href="#DejaVuSans-54"/>
      <use xlink:href="#DejaVuSans-69" transform="translate(57.958984 0)"/>
      <use xlink:href="#DejaVuSans-6d" transform="translate(85.742188 0)"/>
      <use xlink:href="#DejaVuSans-65" transform="translate(183.154297 0)"/>
      <use xlink:href="#DejaVuSans-20" transform="translate(244.677734 0)"/>
      <use xlink:href="#DejaVuSans-28" transform="translate(276.464844 0)"/>
      <use xlink:href="#DejaVuSans-6d" transform="translate(315.478516 0)"/>
      <use xlink:href="#DejaVuSans-29" transform="translate(412.890625 0)"/>
     </g>
    </g>
   </g>
   <g id="matplotlib.axis_2">
    <g id="ytick_1">
     <g id="line2d_11">
      <path d="M 60.02524 288.037009 
L 457.79976 288.037009 
" clip-path="url(#p5cbe4f1453)" style="fill: none; stroke-dasharray: 3.7,1.6; stroke-dashoffset: 0; stroke: #b0b0b0"/>
     </g>
     <g id="line2d_12">
      <defs>
       <path id="ma4a29a5276" d="M 0 0 
L -3.5 0 
" style="stroke: #000000; stroke-width: 0.8"/>
      </defs>
      <g>
       <use xlink:href="#ma4a29a5276" x="60.02524" y="288.037009" style="stroke: #000000; stroke-width: 0.8"/>
      </g>
     </g>
     <g id="text_7">
      <!-- 0 -->
      <g transform="translate(42.84524 294.115759) scale(0.16 -0.16)">
       <use xlink:href="#DejaVuSans-30"/>
      </g>
     </g>
    </g>
    <g id="ytick_2">
     <g id="line2d_13">
      <path d="M 60.02524 224.756854 
L 457.79976 224.756854 
" clip-path="url(#p5cbe4f1453)" style="fill: none; stroke-dasharray: 3.7,1.6; stroke-dashoffset: 0; stroke: #b0b0b0"/>
     </g>
     <g id="line2d_14">
      <g>
       <use xlink:href="#ma4a29a5276" x="60.02524" y="224.756854" style="stroke: #000000; stroke-width: 0.8"/>
      </g>
     </g>
     <g id="text_8">
      <!-- 50 -->
      <g transform="translate(32.66524 230.835604) scale(0.16 -0.16)">
       <defs>
        <path id="DejaVuSans-35" d="M 691 4666 
L 3169 4666 
L 3169 4134 
L 1269 4134 
L 1269 2991 
Q 1406 3038 1543 3061 
Q 1681 3084 1819 3084 
Q 2600 3084 3056 2656 
Q 3513 2228 3513 1497 
Q 3513 744 3044 326 
Q 2575 -91 1722 -91 
Q 1428 -91 1123 -41 
Q 819 9 494 109 
L 494 744 
Q 775 591 1075 516 
Q 1375 441 1709 441 
Q 2250 441 2565 725 
Q 2881 1009 2881 1497 
Q 2881 1984 2565 2268 
Q 2250 2553 1709 2553 
Q 1456 2553 1204 2497 
Q 953 2441 691 2322 
L 691 4666 
z
" transform="scale(0.015625)"/>
       </defs>
       <use xlink:href="#DejaVuSans-35"/>
       <use xlink:href="#DejaVuSans-30" transform="translate(63.623047 0)"/>
      </g>
     </g>
    </g>
    <g id="ytick_3">
     <g id="line2d_15">
      <path d="M 60.02524 161.476698 
L 457.79976 161.476698 
" clip-path="url(#p5cbe4f1453)" style="fill: none; stroke-dasharray: 3.7,1.6; stroke-dashoffset: 0; stroke: #b0b0b0"/>
     </g>
     <g id="line2d_16">
      <g>
       <use xlink:href="#ma4a29a5276" x="60.02524" y="161.476698" style="stroke: #000000; stroke-width: 0.8"/>
      </g>
     </g>
     <g id="text_9">
      <!-- 100 -->
      <g transform="translate(22.48524 167.555448) scale(0.16 -0.16)">
       <defs>
        <path id="DejaVuSans-31" d="M 794 531 
L 1825 531 
L 1825 4091 
L 703 3866 
L 703 4441 
L 1819 4666 
L 2450 4666 
L 2450 531 
L 3481 531 
L 3481 0 
L 794 0 
L 794 531 
z
" transform="scale(0.015625)"/>
       </defs>
       <use xlink:href="#DejaVuSans-31"/>
       <use xlink:href="#DejaVuSans-30" transform="translate(63.623047 0)"/>
       <use xlink:href="#DejaVuSans-30" transform="translate(127.246094 0)"/>
      </g>
     </g>
    </g>
    <g id="ytick_4">
     <g id="line2d_17">
      <path d="M 60.02524 98.196543 
L 457.79976 98.196543 
" clip-path="url(#p5cbe4f1453)" style="fill: none; stroke-dasharray: 3.7,1.6; stroke-dashoffset: 0; stroke: #b0b0b0"/>
     </g>
     <g id="line2d_18">
      <g>
       <use xlink:href="#ma4a29a5276" x="60.02524" y="98.196543" style="stroke: #000000; stroke-width: 0.8"/>
      </g>
     </g>
     <g id="text_10">
      <!-- 150 -->
      <g transform="translate(22.48524 104.275293) scale(0.16 -0.16)">
       <use xlink:href="#DejaVuSans-31"/>
       <use xlink:href="#DejaVuSans-35" transform="translate(63.623047 0)"/>
       <use xlink:href="#DejaVuSans-30" transform="translate(127.246094 0)"/>
      </g>
     </g>
    </g>
    <g id="ytick_5">
     <g id="line2d_19">
      <path d="M 60.02524 34.916388 
L 457.79976 34.916388 
" clip-path="url(#p5cbe4f1453)" style="fill: none; stroke-dasharray: 3.7,1.6; stroke-dashoffset: 0; stroke: #b0b0b0"/>
     </g>
     <g id="line2d_20">
      <g>
       <use xlink:href="#ma4a29a5276" x="60.02524" y="34.916388" style="stroke: #000000; stroke-width: 0.8"/>
      </g>
     </g>
     <g id="text_11">
      <!-- 200 -->
      <g transform="translate(22.48524 40.995138) scale(0.16 -0.16)">
       <use xlink:href="#DejaVuSans-32"/>
       <use xlink:href="#DejaVuSans-30" transform="translate(63.623047 0)"/>
       <use xlink:href="#DejaVuSans-30" transform="translate(127.246094 0)"/>
      </g>
     </g>
    </g>
    <g id="text_12">
     <!-- Queries complete -->
     <g transform="translate(15.15774 232.912) rotate(-90) scale(0.16 -0.16)">
      <defs>
       <path id="DejaVuSans-51" d="M 2522 4238 
Q 1834 4238 1429 3725 
Q 1025 3213 1025 2328 
Q 1025 1447 1429 934 
Q 1834 422 2522 422 
Q 3209 422 3611 934 
Q 4013 1447 4013 2328 
Q 4013 3213 3611 3725 
Q 3209 4238 2522 4238 
z
M 3406 84 
L 4238 -825 
L 3475 -825 
L 2784 -78 
Q 2681 -84 2626 -87 
Q 2572 -91 2522 -91 
Q 1538 -91 948 567 
Q 359 1225 359 2328 
Q 359 3434 948 4092 
Q 1538 4750 2522 4750 
Q 3503 4750 4090 4092 
Q 4678 3434 4678 2328 
Q 4678 1516 4351 937 
Q 4025 359 3406 84 
z
" transform="scale(0.015625)"/>
       <path id="DejaVuSans-75" d="M 544 1381 
L 544 3500 
L 1119 3500 
L 1119 1403 
Q 1119 906 1312 657 
Q 1506 409 1894 409 
Q 2359 409 2629 706 
Q 2900 1003 2900 1516 
L 2900 3500 
L 3475 3500 
L 3475 0 
L 2900 0 
L 2900 538 
Q 2691 219 2414 64 
Q 2138 -91 1772 -91 
Q 1169 -91 856 284 
Q 544 659 544 1381 
z
M 1991 3584 
L 1991 3584 
z
" transform="scale(0.015625)"/>
       <path id="DejaVuSans-72" d="M 2631 2963 
Q 2534 3019 2420 3045 
Q 2306 3072 2169 3072 
Q 1681 3072 1420 2755 
Q 1159 2438 1159 1844 
L 1159 0 
L 581 0 
L 581 3500 
L 1159 3500 
L 1159 2956 
Q 1341 3275 1631 3429 
Q 1922 3584 2338 3584 
Q 2397 3584 2469 3576 
Q 2541 3569 2628 3553 
L 2631 2963 
z
" transform="scale(0.015625)"/>
       <path id="DejaVuSans-73" d="M 2834 3397 
L 2834 2853 
Q 2591 2978 2328 3040 
Q 2066 3103 1784 3103 
Q 1356 3103 1142 2972 
Q 928 2841 928 2578 
Q 928 2378 1081 2264 
Q 1234 2150 1697 2047 
L 1894 2003 
Q 2506 1872 2764 1633 
Q 3022 1394 3022 966 
Q 3022 478 2636 193 
Q 2250 -91 1575 -91 
Q 1294 -91 989 -36 
Q 684 19 347 128 
L 347 722 
Q 666 556 975 473 
Q 1284 391 1588 391 
Q 1994 391 2212 530 
Q 2431 669 2431 922 
Q 2431 1156 2273 1281 
Q 2116 1406 1581 1522 
L 1381 1569 
Q 847 1681 609 1914 
Q 372 2147 372 2553 
Q 372 3047 722 3315 
Q 1072 3584 1716 3584 
Q 2034 3584 2315 3537 
Q 2597 3491 2834 3397 
z
" transform="scale(0.015625)"/>
       <path id="DejaVuSans-63" d="M 3122 3366 
L 3122 2828 
Q 2878 2963 2633 3030 
Q 2388 3097 2138 3097 
Q 1578 3097 1268 2742 
Q 959 2388 959 1747 
Q 959 1106 1268 751 
Q 1578 397 2138 397 
Q 2388 397 2633 464 
Q 2878 531 3122 666 
L 3122 134 
Q 2881 22 2623 -34 
Q 2366 -91 2075 -91 
Q 1284 -91 818 406 
Q 353 903 353 1747 
Q 353 2603 823 3093 
Q 1294 3584 2113 3584 
Q 2378 3584 2631 3529 
Q 2884 3475 3122 3366 
z
" transform="scale(0.015625)"/>
       <path id="DejaVuSans-6f" d="M 1959 3097 
Q 1497 3097 1228 2736 
Q 959 2375 959 1747 
Q 959 1119 1226 758 
Q 1494 397 1959 397 
Q 2419 397 2687 759 
Q 2956 1122 2956 1747 
Q 2956 2369 2687 2733 
Q 2419 3097 1959 3097 
z
M 1959 3584 
Q 2709 3584 3137 3096 
Q 3566 2609 3566 1747 
Q 3566 888 3137 398 
Q 2709 -91 1959 -91 
Q 1206 -91 779 398 
Q 353 888 353 1747 
Q 353 2609 779 3096 
Q 1206 3584 1959 3584 
z
" transform="scale(0.015625)"/>
       <path id="DejaVuSans-70" d="M 1159 525 
L 1159 -1331 
L 581 -1331 
L 581 3500 
L 1159 3500 
L 1159 2969 
Q 1341 3281 1617 3432 
Q 1894 3584 2278 3584 
Q 2916 3584 3314 3078 
Q 3713 2572 3713 1747 
Q 3713 922 3314 415 
Q 2916 -91 2278 -91 
Q 1894 -91 1617 61 
Q 1341 213 1159 525 
z
M 3116 1747 
Q 3116 2381 2855 2742 
Q 2594 3103 2138 3103 
Q 1681 3103 1420 2742 
Q 1159 2381 1159 1747 
Q 1159 1113 1420 752 
Q 1681 391 2138 391 
Q 2594 391 2855 752 
Q 3116 1113 3116 1747 
z
" transform="scale(0.015625)"/>
       <path id="DejaVuSans-6c" d="M 603 4863 
L 1178 4863 
L 1178 0 
L 603 0 
L 603 4863 
z
" transform="scale(0.015625)"/>
       <path id="DejaVuSans-74" d="M 1172 4494 
L 1172 3500 
L 2356 3500 
L 2356 3053 
L 1172 3053 
L 1172 1153 
Q 1172 725 1289 603 
Q 1406 481 1766 481 
L 2356 481 
L 2356 0 
L 1766 0 
Q 1100 0 847 248 
Q 594 497 594 1153 
L 594 3053 
L 172 3053 
L 172 3500 
L 594 3500 
L 594 4494 
L 1172 4494 
z
" transform="scale(0.015625)"/>
      </defs>
      <use xlink:href="#DejaVuSans-51"/>
      <use xlink:href="#DejaVuSans-75" transform="translate(78.710938 0)"/>
      <use xlink:href="#DejaVuSans-65" transform="translate(142.089844 0)"/>
      <use xlink:href="#DejaVuSans-72" transform="translate(203.613281 0)"/>
      <use xlink:href="#DejaVuSans-69" transform="translate(244.726562 0)"/>
      <use xlink:href="#DejaVuSans-65" transform="translate(272.509766 0)"/>
      <use xlink:href="#DejaVuSans-73" transform="translate(334.033203 0)"/>
      <use xlink:href="#DejaVuSans-20" transform="translate(386.132812 0)"/>
      <use xlink:href="#DejaVuSans-63" transform="translate(417.919922 0)"/>
      <use xlink:href="#DejaVuSans-6f" transform="translate(472.900391 0)"/>
      <use xlink:href="#DejaVuSans-6d" transform="translate(534.082031 0)"/>
      <use xlink:href="#DejaVuSans-70" transform="translate(631.494141 0)"/>
      <use xlink:href="#DejaVuSans-6c" transform="translate(694.970703 0)"/>
      <use xlink:href="#DejaVuSans-65" transform="translate(722.753906 0)"/>
      <use xlink:href="#DejaVuSans-74" transform="translate(784.277344 0)"/>
      <use xlink:href="#DejaVuSans-65" transform="translate(823.486328 0)"/>
     </g>
    </g>
   </g>
   <g id="line2d_21">
    <path d="M 78.1059 288.037009 
L 78.322946 285.505803 
L 78.433575 284.2402 
L 78.82213 282.974597 
L 78.882987 281.708994 
L 79.826989 280.44339 
L 80.636495 272.849772 
L 82.21312 271.584169 
L 82.428909 270.318566 
L 82.952021 269.052962 
L 83.15789 267.787359 
L 84.737366 266.521756 
L 84.939637 265.256153 
L 85.25524 263.99055 
L 85.639905 261.459344 
L 87.047646 260.193741 
L 88.272313 258.928138 
L 88.909538 257.662535 
L 89.283011 256.396931 
L 89.50773 253.865725 
L 90.027601 252.600122 
L 91.119227 251.334519 
L 91.27595 250.068916 
L 91.549401 248.803313 
L 91.824971 246.272107 
L 92.182246 243.7409 
L 93.139039 242.475297 
L 93.383098 241.209694 
L 93.400564 239.944091 
L 93.554711 238.678488 
L 94.573269 237.412885 
L 94.716464 234.881679 
L 95.001059 233.616076 
L 95.175375 231.084869 
L 95.435262 229.819266 
L 95.620455 227.28806 
L 95.920653 224.756854 
L 95.948277 223.491251 
L 96.689776 222.225648 
L 96.710522 220.960044 
L 97.042314 218.428838 
L 97.129051 217.163235 
L 102.112433 215.897632 
L 102.220735 214.632029 
L 102.621134 213.366426 
L 296.744298 212.100823 
L 297.438241 210.83522 
L 297.864558 208.304013 
L 298.421573 207.03841 
L 298.784733 204.507204 
L 299.922315 203.241601 
L 300.214016 200.710395 
L 301.376452 199.444792 
L 301.398004 198.179189 
L 301.937893 195.647982 
L 302.474701 190.58557 
L 302.713333 189.319967 
L 302.827968 188.054364 
L 303.128495 186.788761 
L 303.277862 184.257554 
L 304.262122 180.460745 
L 305.73823 179.195142 
L 306.098304 177.929539 
L 306.376057 175.398333 
L 307.093286 174.13273 
L 307.201407 172.867126 
L 308.384583 171.601523 
L 308.770865 170.33592 
L 309.133225 167.804714 
L 315.65964 166.539111 
L 316.218507 161.476698 
L 317.351795 160.211095 
L 317.680947 157.679889 
L 317.849958 155.148683 
L 318.404042 152.617477 
L 318.533711 151.351874 
L 319.220694 150.08627 
L 319.478599 148.820667 
L 319.781259 143.758255 
L 321.402544 142.492652 
L 321.634387 139.961446 
L 321.885242 138.695843 
L 321.948606 137.430239 
L 325.265409 136.164636 
L 325.355572 134.899033 
L 330.191746 133.63343 
L 330.881944 131.102224 
L 331.03558 129.836621 
L 331.096195 127.305415 
L 331.313467 126.039811 
L 331.738069 124.774208 
L 331.903892 123.508605 
L 331.932045 122.243002 
L 332.720948 120.977399 
L 332.799386 118.446193 
L 335.556572 117.18059 
L 335.776216 115.914987 
L 341.521664 114.649384 
L 343.754564 113.38378 
L 344.186016 110.852574 
L 344.817359 109.586971 
L 344.881036 108.321368 
L 345.144168 107.055765 
L 345.475053 103.258956 
L 347.484421 101.993352 
L 347.76 99.462146 
L 350.444017 98.196543 
L 350.989105 93.134131 
L 351.057897 91.868528 
L 351.347709 89.337321 
L 352.875745 88.071718 
L 352.910653 86.806115 
L 353.760007 85.540512 
L 354.004859 79.212497 
L 354.515302 74.150084 
L 354.536715 72.884481 
L 356.12376 71.618878 
L 356.659487 66.556465 
L 358.397119 65.290862 
L 358.752958 62.759656 
L 359.034557 61.494053 
L 361.224171 60.22845 
L 361.329161 58.962847 
L 435.86381 57.697244 
L 435.941646 56.431641 
L 436.568167 55.166038 
L 436.804658 53.900434 
L 436.862235 51.369228 
L 437.123683 48.838022 
L 437.450251 46.306816 
L 437.666462 45.041213 
L 437.703701 43.77561 
L 438.245407 42.510006 
L 438.263734 41.244403 
L 438.624149 39.9788 
L 438.791453 38.713197 
L 439.519906 37.447594 
L 439.7191 36.181991 
L 439.7191 36.181991 
" clip-path="url(#p5cbe4f1453)" style="fill: none; stroke: #1f77b4; stroke-width: 3; stroke-linecap: square"/>
   </g>
   <g id="line2d_22">
    <path d="M 78.1059 288.037009 
L 78.327062 285.505803 
L 78.448112 284.2402 
L 78.72046 282.974597 
L 78.793638 281.708994 
L 79.87537 280.44339 
L 80.025921 279.177787 
L 80.292514 277.912184 
L 80.808924 272.849772 
L 82.233355 271.584169 
L 82.528464 270.318566 
L 83.076716 269.052962 
L 83.284101 267.787359 
L 84.907973 266.521756 
L 85.203573 265.256153 
L 85.756963 263.99055 
L 86.170525 261.459344 
L 87.829198 260.193741 
L 88.957223 258.928138 
L 89.582304 257.662535 
L 93.004054 256.396931 
L 93.24724 253.865725 
L 93.792575 252.600122 
L 95.223045 251.334519 
L 95.429244 250.068916 
L 95.748072 248.803313 
L 95.901418 247.53771 
L 96.427011 246.272107 
L 96.884292 243.7409 
L 97.882865 242.475297 
L 98.151985 241.209694 
L 98.186553 239.944091 
L 98.409052 238.678488 
L 99.757697 237.412885 
L 99.949001 234.881679 
L 100.175234 233.616076 
L 100.387697 231.084869 
L 100.598266 229.819266 
L 100.837563 227.28806 
L 101.100662 226.022457 
L 104.407589 224.756854 
L 104.466641 223.491251 
L 105.269147 222.225648 
L 105.329575 220.960044 
L 105.672362 218.428838 
L 105.75506 217.163235 
L 112.296028 215.897632 
L 112.401093 214.632029 
L 112.910941 213.366426 
L 158.144397 212.100823 
L 159.255594 210.83522 
L 159.738646 208.304013 
L 160.467941 207.03841 
L 160.865381 204.507204 
L 161.994956 203.241601 
L 162.33733 200.710395 
L 163.187681 199.444792 
L 163.247846 198.179189 
L 163.683255 196.913585 
L 164.046107 194.382379 
L 169.600959 193.116776 
L 169.944898 190.58557 
L 170.622337 186.788761 
L 170.81842 184.257554 
L 171.85678 182.991951 
L 172.266419 181.726348 
L 172.45836 180.460745 
L 173.400934 176.663936 
L 173.529456 175.398333 
L 174.224873 174.13273 
L 174.365072 172.867126 
L 175.887921 171.601523 
L 176.322595 170.33592 
L 176.782745 167.804714 
L 178.460876 166.539111 
L 178.64851 165.273508 
L 179.179555 164.007905 
L 179.21757 162.742302 
L 184.167141 161.476698 
L 185.300319 160.211095 
L 186.220068 153.88308 
L 186.5843 152.617477 
L 186.797605 151.351874 
L 187.560307 150.08627 
L 187.953357 148.820667 
L 188.389812 143.758255 
L 190.013333 142.492652 
L 190.368161 139.961446 
L 190.656005 138.695843 
L 190.732935 137.430239 
L 194.276495 136.164636 
L 194.415384 134.899033 
L 199.181995 133.63343 
L 200.26712 131.102224 
L 207.39665 129.836621 
L 207.512688 127.305415 
L 208.493646 123.508605 
L 208.538815 122.243002 
L 209.404291 120.977399 
L 209.532778 118.446193 
L 213.393769 117.18059 
L 213.589704 115.914987 
L 219.538721 114.649384 
L 221.917533 113.38378 
L 222.103044 112.118177 
L 222.971487 109.586971 
L 223.074677 108.321368 
L 223.471367 107.055765 
L 223.95964 103.258956 
L 225.933237 101.993352 
L 226.247074 99.462146 
L 234.857026 98.196543 
L 235.659858 93.134131 
L 235.750332 91.868528 
L 236.001921 90.602924 
L 236.13221 89.337321 
L 237.311382 88.071718 
L 237.376783 86.806115 
L 238.265099 85.540512 
L 238.909465 76.68129 
L 239.233036 74.150084 
L 239.287834 72.884481 
L 240.369473 71.618878 
L 240.721453 69.087672 
L 240.902235 67.822069 
L 247.619628 66.556465 
L 249.260097 65.290862 
L 250.14273 61.494053 
L 251.941459 60.22845 
L 252.049741 58.962847 
L 268.828057 57.697244 
L 268.938951 56.431641 
L 269.718656 55.166038 
L 270.070116 53.900434 
L 270.175355 51.369228 
L 270.93786 46.306816 
L 271.224819 45.041213 
L 271.295277 43.77561 
L 271.888135 42.510006 
L 271.928667 41.244403 
L 272.284717 39.9788 
L 272.661315 37.447594 
L 272.96961 36.181991 
L 272.96961 36.181991 
" clip-path="url(#p5cbe4f1453)" style="fill: none; stroke: #ff7f0e; stroke-width: 3; stroke-linecap: square"/>
   </g>
   <g id="patch_3">
    <path d="M 60.02524 300.62976 
L 60.02524 23.58924 
" style="fill: none; stroke: #000000; stroke-width: 0.8; stroke-linejoin: miter; stroke-linecap: square"/>
   </g>
   <g id="patch_4">
    <path d="M 457.79976 300.62976 
L 457.79976 23.58924 
" style="fill: none; stroke: #000000; stroke-width: 0.8; stroke-linejoin: miter; stroke-linecap: square"/>
   </g>
   <g id="patch_5">
    <path d="M 60.02524 300.62976 
L 457.79976 300.62976 
" style="fill: none; stroke: #000000; stroke-width: 0.8; stroke-linejoin: miter; stroke-linecap: square"/>
   </g>
   <g id="patch_6">
    <path d="M 60.02524 23.58924 
L 457.79976 23.58924 
" style="fill: none; stroke: #000000; stroke-width: 0.8; stroke-linejoin: miter; stroke-linecap: square"/>
   </g>
   <g id="text_13">
    <!-- PostgreSQL vs OntoTune -->
    <g transform="translate(141.551 17.58924) scale(0.192 -0.192)">
     <defs>
      <path id="DejaVuSans-50" d="M 1259 4147 
L 1259 2394 
L 2053 2394 
Q 2494 2394 2734 2622 
Q 2975 2850 2975 3272 
Q 2975 3691 2734 3919 
Q 2494 4147 2053 4147 
L 1259 4147 
z
M 628 4666 
L 2053 4666 
Q 2838 4666 3239 4311 
Q 3641 3956 3641 3272 
Q 3641 2581 3239 2228 
Q 2838 1875 2053 1875 
L 1259 1875 
L 1259 0 
L 628 0 
L 628 4666 
z
" transform="scale(0.015625)"/>
      <path id="DejaVuSans-67" d="M 2906 1791 
Q 2906 2416 2648 2759 
Q 2391 3103 1925 3103 
Q 1463 3103 1205 2759 
Q 947 2416 947 1791 
Q 947 1169 1205 825 
Q 1463 481 1925 481 
Q 2391 481 2648 825 
Q 2906 1169 2906 1791 
z
M 3481 434 
Q 3481 -459 3084 -895 
Q 2688 -1331 1869 -1331 
Q 1566 -1331 1297 -1286 
Q 1028 -1241 775 -1147 
L 775 -588 
Q 1028 -725 1275 -790 
Q 1522 -856 1778 -856 
Q 2344 -856 2625 -561 
Q 2906 -266 2906 331 
L 2906 616 
Q 2728 306 2450 153 
Q 2172 0 1784 0 
Q 1141 0 747 490 
Q 353 981 353 1791 
Q 353 2603 747 3093 
Q 1141 3584 1784 3584 
Q 2172 3584 2450 3431 
Q 2728 3278 2906 2969 
L 2906 3500 
L 3481 3500 
L 3481 434 
z
" transform="scale(0.015625)"/>
      <path id="DejaVuSans-53" d="M 3425 4513 
L 3425 3897 
Q 3066 4069 2747 4153 
Q 2428 4238 2131 4238 
Q 1616 4238 1336 4038 
Q 1056 3838 1056 3469 
Q 1056 3159 1242 3001 
Q 1428 2844 1947 2747 
L 2328 2669 
Q 3034 2534 3370 2195 
Q 3706 1856 3706 1288 
Q 3706 609 3251 259 
Q 2797 -91 1919 -91 
Q 1588 -91 1214 -16 
Q 841 59 441 206 
L 441 856 
Q 825 641 1194 531 
Q 1563 422 1919 422 
Q 2459 422 2753 634 
Q 3047 847 3047 1241 
Q 3047 1584 2836 1778 
Q 2625 1972 2144 2069 
L 1759 2144 
Q 1053 2284 737 2584 
Q 422 2884 422 3419 
Q 422 4038 858 4394 
Q 1294 4750 2059 4750 
Q 2388 4750 2728 4690 
Q 3069 4631 3425 4513 
z
" transform="scale(0.015625)"/>
      <path id="DejaVuSans-4c" d="M 628 4666 
L 1259 4666 
L 1259 531 
L 3531 531 
L 3531 0 
L 628 0 
L 628 4666 
z
" transform="scale(0.015625)"/>
      <path id="DejaVuSans-76" d="M 191 3500 
L 800 3500 
L 1894 563 
L 2988 3500 
L 3597 3500 
L 2284 0 
L 1503 0 
L 191 3500 
z
" transform="scale(0.015625)"/>
      <path id="DejaVuSans-4f" d="M 2522 4238 
Q 1834 4238 1429 3725 
Q 1025 3213 1025 2328 
Q 1025 1447 1429 934 
Q 1834 422 2522 422 
Q 3209 422 3611 934 
Q 4013 1447 4013 2328 
Q 4013 3213 3611 3725 
Q 3209 4238 2522 4238 
z
M 2522 4750 
Q 3503 4750 4090 4092 
Q 4678 3434 4678 2328 
Q 4678 1225 4090 567 
Q 3503 -91 2522 -91 
Q 1538 -91 948 565 
Q 359 1222 359 2328 
Q 359 3434 948 4092 
Q 1538 4750 2522 4750 
z
" transform="scale(0.015625)"/>
      <path id="DejaVuSans-6e" d="M 3513 2113 
L 3513 0 
L 2938 0 
L 2938 2094 
Q 2938 2591 2744 2837 
Q 2550 3084 2163 3084 
Q 1697 3084 1428 2787 
Q 1159 2491 1159 1978 
L 1159 0 
L 581 0 
L 581 3500 
L 1159 3500 
L 1159 2956 
Q 1366 3272 1645 3428 
Q 1925 3584 2291 3584 
Q 2894 3584 3203 3211 
Q 3513 2838 3513 2113 
z
" transform="scale(0.015625)"/>
     </defs>
     <use xlink:href="#DejaVuSans-50"/>
     <use xlink:href="#DejaVuSans-6f" transform="translate(56.677734 0)"/>
     <use xlink:href="#DejaVuSans-73" transform="translate(117.859375 0)"/>
     <use xlink:href="#DejaVuSans-74" transform="translate(169.958984 0)"/>
     <use xlink:href="#DejaVuSans-67" transform="translate(209.167969 0)"/>
     <use xlink:href="#DejaVuSans-72" transform="translate(272.644531 0)"/>
     <use xlink:href="#DejaVuSans-65" transform="translate(311.507812 0)"/>
     <use xlink:href="#DejaVuSans-53" transform="translate(373.03125 0)"/>
     <use xlink:href="#DejaVuSans-51" transform="translate(436.507812 0)"/>
     <use xlink:href="#DejaVuSans-4c" transform="translate(515.21875 0)"/>
     <use xlink:href="#DejaVuSans-20" transform="translate(570.931641 0)"/>
     <use xlink:href="#DejaVuSans-76" transform="translate(602.71875 0)"/>
     <use xlink:href="#DejaVuSans-73" transform="translate(661.898438 0)"/>
     <use xlink:href="#DejaVuSans-20" transform="translate(713.998047 0)"/>
     <use xlink:href="#DejaVuSans-4f" transform="translate(745.785156 0)"/>
     <use xlink:href="#DejaVuSans-6e" transform="translate(824.496094 0)"/>
     <use xlink:href="#DejaVuSans-74" transform="translate(887.875 0)"/>
     <use xlink:href="#DejaVuSans-6f" transform="translate(927.083984 0)"/>
     <use xlink:href="#DejaVuSans-54" transform="translate(988.265625 0)"/>
     <use xlink:href="#DejaVuSans-75" transform="translate(1034.224609 0)"/>
     <use xlink:href="#DejaVuSans-6e" transform="translate(1097.603516 0)"/>
     <use xlink:href="#DejaVuSans-65" transform="translate(1160.982422 0)"/>
    </g>
   </g>
   <g id="legend_1">
    <g id="patch_7">
     <path d="M 71.22524 83.35924 
L 202.69024 83.35924 
Q 205.89024 83.35924 205.89024 80.15924 
L 205.89024 34.78924 
Q 205.89024 31.58924 202.69024 31.58924 
L 71.22524 31.58924 
Q 68.02524 31.58924 68.02524 34.78924 
L 68.02524 80.15924 
Q 68.02524 83.35924 71.22524 83.35924 
z
" style="fill: #ffffff; opacity: 0.8; stroke: #cccccc; stroke-linejoin: miter"/>
    </g>
    <g id="line2d_23">
     <path d="M 74.42524 44.54674 
L 90.42524 44.54674 
L 106.42524 44.54674 
" style="fill: none; stroke: #1f77b4; stroke-width: 3; stroke-linecap: square"/>
    </g>
    <g id="text_14">
     <!-- PG -->
     <g transform="translate(119.22524 50.14674) scale(0.16 -0.16)">
      <defs>
       <path id="DejaVuSans-47" d="M 3809 666 
L 3809 1919 
L 2778 1919 
L 2778 2438 
L 4434 2438 
L 4434 434 
Q 4069 175 3628 42 
Q 3188 -91 2688 -91 
Q 1594 -91 976 548 
Q 359 1188 359 2328 
Q 359 3472 976 4111 
Q 1594 4750 2688 4750 
Q 3144 4750 3555 4637 
Q 3966 4525 4313 4306 
L 4313 3634 
Q 3963 3931 3569 4081 
Q 3175 4231 2741 4231 
Q 1884 4231 1454 3753 
Q 1025 3275 1025 2328 
Q 1025 1384 1454 906 
Q 1884 428 2741 428 
Q 3075 428 3337 486 
Q 3600 544 3809 666 
z
" transform="scale(0.015625)"/>
      </defs>
      <use xlink:href="#DejaVuSans-50"/>
      <use xlink:href="#DejaVuSans-47" transform="translate(60.302734 0)"/>
     </g>
    </g>
    <g id="line2d_24">
     <path d="M 74.42524 68.03174 
L 90.42524 68.03174 
L 106.42524 68.03174 
" style="fill: none; stroke: #ff7f0e; stroke-width: 3; stroke-linecap: square"/>
    </g>
    <g id="text_15">
     <!-- OntoTUne -->
     <g transform="translate(119.22524 73.63174) scale(0.16 -0.16)">
      <defs>
       <path id="DejaVuSans-55" d="M 556 4666 
L 1191 4666 
L 1191 1831 
Q 1191 1081 1462 751 
Q 1734 422 2344 422 
Q 2950 422 3222 751 
Q 3494 1081 3494 1831 
L 3494 4666 
L 4128 4666 
L 4128 1753 
Q 4128 841 3676 375 
Q 3225 -91 2344 -91 
Q 1459 -91 1007 375 
Q 556 841 556 1753 
L 556 4666 
z
" transform="scale(0.015625)"/>
      </defs>
      <use xlink:href="#DejaVuSans-4f"/>
      <use xlink:href="#DejaVuSans-6e" transform="translate(78.710938 0)"/>
      <use xlink:href="#DejaVuSans-74" transform="translate(142.089844 0)"/>
      <use xlink:href="#DejaVuSans-6f" transform="translate(181.298828 0)"/>
      <use xlink:href="#DejaVuSans-54" transform="translate(242.480469 0)"/>
      <use xlink:href="#DejaVuSans-55" transform="translate(303.564453 0)"/>
      <use xlink:href="#DejaVuSans-6e" transform="translate(376.757812 0)"/>
      <use xlink:href="#DejaVuSans-65" transform="translate(440.136719 0)"/>
     </g>
    </g>
   </g>
  </g>
 </g>
 <defs>
  <clipPath id="p5cbe4f1453">
   <rect x="60.02524" y="23.58924" width="397.77452" height="277.04052"/>
  </clipPath>
 </defs>
</svg>
